<svg width="985" height="587" viewBox="0 0 985 587" fill="none" xmlns="http://www.w3.org/2000/svg">
<g clip-path="url(#clip0_17_204)">
<path d="M568.537 471.593C566.238 471.593 563.99 472.267 562.078 473.529C560.166 474.792 558.676 476.586 557.796 478.685C556.916 480.785 556.686 483.095 557.135 485.324C557.583 487.553 558.691 489.6 560.316 491.207C561.942 492.813 564.014 493.908 566.269 494.351C568.525 494.794 570.862 494.567 572.987 493.697C575.111 492.828 576.927 491.355 578.204 489.466C579.482 487.576 580.164 485.355 580.164 483.082C580.164 480.035 578.939 477.113 576.758 474.958C574.578 472.803 571.621 471.593 568.537 471.593ZM568.537 490.153C567.122 490.153 565.739 489.738 564.562 488.961C563.386 488.184 562.469 487.08 561.927 485.788C561.386 484.496 561.244 483.075 561.52 481.703C561.796 480.331 562.478 479.071 563.478 478.083C564.479 477.094 565.754 476.42 567.142 476.148C568.529 475.875 569.968 476.015 571.275 476.55C572.583 477.085 573.7 477.991 574.486 479.154C575.273 480.317 575.692 481.684 575.692 483.082V483.082C575.692 484.958 574.938 486.756 573.597 488.082C572.255 489.408 570.435 490.153 568.537 490.153Z" fill="#E4E4E4"/>
<path d="M523.821 462.754H568.537V506.491C568.537 508.018 567.924 509.482 566.831 510.562C565.739 511.642 564.257 512.248 562.712 512.248H529.646C528.101 512.248 526.619 511.642 525.527 510.562C524.434 509.482 523.821 508.018 523.821 506.491V462.754Z" fill="#E4E4E4"/>
<path d="M673.017 513.249H0.906971C0.657717 513.222 0.427332 513.105 0.259972 512.92C0.0926126 512.736 6.10352e-05 512.497 6.10352e-05 512.249C6.10352e-05 512.001 0.0926126 511.762 0.259972 511.578C0.427332 511.393 0.657717 511.276 0.906971 511.249H673.017C673.266 511.276 673.497 511.393 673.664 511.578C673.832 511.762 673.924 512.001 673.924 512.249C673.924 512.497 673.832 512.736 673.664 512.92C673.497 513.105 673.266 513.222 673.017 513.249Z" fill="#CACACA"/>
<path d="M90.4698 494.36L86.3131 514.672L163.612 540.185L169.748 510.206L90.4698 494.36Z" fill="#FFB6B6"/>
<path d="M98.2411 490.521L90.054 530.522L90.0537 530.523C88.6693 537.284 84.6243 543.224 78.8083 547.038C72.9924 550.851 65.8818 552.225 59.0406 550.858L58.2024 550.69L71.6073 485.197L98.2411 490.521Z" fill="#2F2E41"/>
<path d="M178.065 214.575C207.052 214.575 230.551 191.352 230.551 162.706C230.551 134.06 207.052 110.837 178.065 110.837C149.078 110.837 125.579 134.06 125.579 162.706C125.579 191.352 149.078 214.575 178.065 214.575Z" fill="#A97E6D"/>
<path d="M227.088 117.958C219.241 105.365 206.957 96.0863 192.603 91.9071L186.159 96.5538V90.5201C182.712 89.9987 179.222 89.7978 175.737 89.9201L170.178 94.8909V90.3331C161.947 91.3439 154.017 94.0291 146.889 98.2193C139.761 102.41 133.588 108.014 128.761 114.679C116.688 131.878 114.65 155.806 126.525 173.144C129.784 163.244 133.74 153.955 137 144.057C139.562 144.402 142.159 144.414 144.724 144.094L148.689 134.949L149.797 143.707C162.089 142.649 180.321 140.325 191.973 138.196L190.84 131.477L197.619 137.06C201.189 136.248 203.309 135.511 203.134 134.948C211.8 148.756 222.407 157.574 231.072 171.382C234.364 151.912 238.152 135.724 227.088 117.958Z" fill="#2F2E41"/>
<path d="M195.142 502.125C269.78 502.125 330.285 485.399 330.285 464.767C330.285 444.135 269.78 427.41 195.142 427.41C120.505 427.41 59.9992 444.135 59.9992 464.767C59.9992 485.399 120.505 502.125 195.142 502.125Z" fill="#2F2E41"/>
<path d="M290.947 296.088C289.143 285.358 287.281 274.421 282.235 264.755C278.918 258.423 273.653 252.389 266.556 251.137C265.158 251.014 263.784 250.7 262.473 250.203C260.394 249.213 232.448 233.448 228.006 230.702C224.193 228.345 218.173 223.98 215.137 223.98C212.083 223.914 200.373 226.607 154.668 223.076C146.98 226.126 139.536 229.743 132.397 233.898C132.25 233.802 84.9597 258.898 83.183 258.832C79.8184 258.692 76.691 260.821 74.7621 263.502C72.8338 266.183 71.9291 269.502 70.982 272.71C81.311 295.442 90.7616 318.203 101.092 340.935C101.575 341.792 101.832 342.755 101.839 343.735C101.631 344.753 101.192 345.711 100.554 346.535C95.4878 354.577 95.6489 364.691 96.2023 374.143C96.7561 383.595 97.4409 393.578 93.1667 402.05C92.0041 404.376 90.4923 406.505 89.3866 408.831C86.7972 414.098 85.8614 430.947 87.3737 436.606L276.86 441.971C272.786 430.903 290.947 296.088 290.947 296.088Z" fill="#27AE60"/>
<path d="M54.603 341.943C54.2249 344.646 54.1868 347.385 54.4897 350.097L57.2055 388.641C57.4605 392.274 57.7114 395.898 58.0565 399.522C58.7081 406.555 59.6815 413.531 60.8896 420.498C60.9169 421.487 61.3402 422.425 62.0666 423.106C62.7929 423.787 63.7631 424.156 64.764 424.131C76.7191 426.631 89.0708 426.531 101.272 425.85C119.89 424.823 167.522 422.88 170.432 419.144C173.342 415.408 171.646 409.365 167.852 406.345C164.057 403.324 101.2 395.959 101.2 395.959C101.814 391.149 103.667 386.619 105.424 382.053C108.581 373.953 111.53 365.587 111.587 356.911C111.643 348.234 108.335 339.111 101.143 334.141C95.2269 330.06 87.6097 329.303 80.4002 329.471C75.1548 329.62 66.0916 328.378 61.3005 330.405C57.5091 332.055 55.3113 338.275 54.603 341.943Z" fill="#A97E6D"/>
<path d="M291.284 429.073C294.43 427.887 297.899 428.316 301.273 428.765C312.132 430.231 323.151 431.734 333.216 436.021C337.941 438.021 342.44 440.691 345.634 444.621C348.467 448.161 350.123 452.495 351.692 456.762L355.322 466.588C356.865 470.279 357.929 474.148 358.488 478.103C359.622 489.862 351.485 500.948 341.25 507.056C331.015 513.165 318.966 515.34 307.227 517.619C295.489 519.898 283.705 522.419 272.015 525.091C266.562 526.489 261.03 527.565 255.448 528.312C242.935 529.712 229.856 527.649 217.967 531.74C213.241 533.375 208.601 535.803 203.7 536.933C200.441 537.61 197.147 538.106 193.833 538.418L171.331 540.958C166.756 541.563 162.149 541.912 157.534 542.004C147.706 542.004 138.037 539.704 128.494 537.404C127.479 537.228 126.514 536.843 125.66 536.274C124.149 535.097 123.818 533.014 123.6 531.128C122.636 522.779 121.793 514.42 121.071 506.052C120.844 503.334 120.674 500.393 122.177 498.105C124.067 495.305 127.753 494.425 131.117 493.883C145.384 491.576 159.836 490.585 174.288 490.922C179.778 485.496 188.832 485.468 196.025 482.516C198.671 481.316 201.231 479.939 203.689 478.397C216.554 470.98 230.931 466.491 245.772 465.257C248.679 465.169 251.567 464.762 254.382 464.043C259.947 462.334 265.024 457.682 270.741 458.822C271.449 456.889 271.941 454.302 273.574 452.976C274.384 452.294 275.388 451.837 276.135 451.108C277.714 449.53 277.855 447.045 277.618 444.841C277.382 442.637 276.853 440.377 277.429 438.228C277.669 437.415 278.022 436.639 278.479 435.921C281.304 431.09 285.585 428.606 291.284 429.073Z" fill="#2F2E41"/>
<path d="M70.4355 273.402C69.515 274.355 68.8012 275.483 68.3379 276.718C60.6988 293.732 56.1867 311.954 55.0128 330.532C55.0334 331.438 54.8221 332.334 54.3986 333.138C53.9809 333.672 53.516 334.169 53.0093 334.623C52.5676 335.14 52.2333 335.739 52.0256 336.384C51.8179 337.029 51.7408 337.708 51.7987 338.383C51.8567 339.058 52.0485 339.714 52.3633 340.316C52.678 340.917 53.1096 341.451 53.6333 341.888C53.7192 341.96 53.8073 342.028 53.8977 342.094C55.457 339.194 59.1897 338.247 62.5076 337.995C78.3937 336.753 93.9115 344.056 109.845 343.505C108.721 339.666 107.104 335.978 106.187 332.093C102.133 314.843 112.245 296.061 106.046 279.446C104.807 276.121 102.738 272.852 99.4777 271.395C98.1277 270.857 96.715 270.488 95.2724 270.295C91.2463 269.576 83.2314 266.504 79.3388 267.737C77.9019 268.195 77.3353 269.529 76.1444 270.336C74.3352 271.478 71.9351 271.898 70.4355 273.402Z" fill="#27AE60"/>
<path d="M291.061 330.405C286.27 328.378 277.207 329.62 271.961 329.471C264.752 329.303 257.134 330.06 251.218 334.141C244.026 339.111 240.718 348.234 240.775 356.911C240.831 365.587 243.78 373.953 246.937 382.053C248.695 386.619 250.547 391.149 251.161 395.959C251.161 395.959 188.304 403.324 184.51 406.345C180.715 409.365 179.019 415.408 181.929 419.144C184.84 422.88 275.642 426.631 287.597 424.131C288.598 424.156 289.568 423.787 290.295 423.106C291.021 422.425 291.444 421.487 291.472 420.498C292.68 413.531 293.653 406.555 294.305 399.522C294.65 395.898 294.901 392.274 295.156 388.641L297.872 350.097C298.174 347.385 298.136 344.646 297.758 341.943C297.05 338.275 294.852 332.055 291.061 330.405Z" fill="#A97E6D"/>
<path d="M276.217 270.336C275.026 269.529 274.459 268.195 273.023 267.737C269.13 266.504 261.115 269.576 257.089 270.295C255.646 270.488 254.234 270.857 252.884 271.395C249.623 272.852 247.554 276.121 246.316 279.446C240.116 296.061 250.229 314.843 246.174 332.093C245.257 335.978 243.64 339.666 242.516 343.505C258.45 344.056 273.968 336.753 289.854 337.995C293.172 338.247 296.904 339.194 298.464 342.094C298.554 342.028 298.642 341.96 298.728 341.888C299.252 341.451 299.683 340.917 299.998 340.316C300.313 339.714 300.505 339.058 300.563 338.383C300.62 337.708 300.543 337.029 300.336 336.384C300.128 335.739 299.794 335.14 299.352 334.623C298.845 334.169 298.38 333.672 297.963 333.138C297.539 332.334 297.328 331.438 297.348 330.532C296.175 311.954 291.663 293.732 284.023 276.718C283.56 275.483 282.846 274.355 281.926 273.402C280.426 271.898 278.026 271.478 276.217 270.336Z" fill="#27AE60"/>
<path d="M302.79 523.356L300.028 543.898L218.535 543.143L222.613 512.824L302.79 523.356Z" fill="#A97E6D"/>
<path d="M323.644 520.763L314.736 587L313.888 586.889C306.969 585.98 300.699 582.392 296.457 576.915C292.215 571.437 290.348 564.519 291.267 557.682L291.267 557.68L296.708 517.224L323.644 520.763Z" fill="#2F2E41"/>
<path d="M111.071 439.468C111.071 440.402 109.587 439.468 109.452 438.468C108.412 430.913 102.344 424.683 95.2755 421.657C88.2067 418.631 80.1544 418.472 72.4997 419.191C60.9231 420.274 47.9278 424.655 43.6942 435.348C42.6925 437.848 33.3086 460.107 34.2243 465.113C36.6912 478.468 45.9335 489.891 57.1327 497.802C68.3319 505.712 81.4171 510.438 94.4701 514.701C128.981 525.949 164.388 534.306 200.317 539.684C206.138 540.553 212.017 541.356 217.592 543.205C222.582 544.858 227.251 547.333 232.128 549.275C243.469 553.775 255.669 555.383 267.756 556.962C269.816 557.224 272.179 557.41 273.701 556.028C275.667 554.228 275.016 551.087 274.456 548.5C272.405 538.664 274.126 528.425 279.286 519.773C281.31 516.411 283.941 512.964 283.558 509.073C283.105 504.534 278.53 501.322 273.975 500.593C269.419 499.864 264.789 500.938 260.214 501.526C258.646 501.882 257.003 501.722 255.536 501.068C254.856 500.615 254.24 500.075 253.702 499.463C250.551 496.459 246.518 494.518 242.182 493.919C237.846 493.32 233.429 494.094 229.566 496.129C227.874 497.063 225.316 494.98 223.555 494.196L203.68 485.304C180.848 475.097 157.902 464.841 133.746 458.378C131.819 458.004 129.987 457.251 128.359 456.164C127.159 455.23 126.299 453.965 125.193 452.924C122.783 450.673 119.425 449.776 116.537 448.179C113.648 446.582 110.409 442.671 111.071 439.468Z" fill="#2F2E41"/>
<path d="M162.521 425.972C170.344 425.972 176.687 419.704 176.687 411.972C176.687 404.241 170.344 397.973 162.521 397.973C154.697 397.973 148.355 404.241 148.355 411.972C148.355 419.704 154.697 425.972 162.521 425.972Z" fill="#FBBEBE"/>
<path d="M193.888 425.972C201.712 425.972 208.054 419.704 208.054 411.972C208.054 404.241 201.712 397.973 193.888 397.973C186.064 397.973 179.722 404.241 179.722 411.972C179.722 419.704 186.064 425.972 193.888 425.972Z" fill="#FBBEBE"/>
<path d="M281.331 443.518H86.7123C84.4401 443.515 82.2617 442.622 80.6549 441.035C79.0482 439.447 78.1444 437.294 78.1417 435.049V318.367C78.1444 316.122 79.0482 313.969 80.6549 312.381C82.2617 310.793 84.4401 309.9 86.7123 309.898H281.331C283.603 309.9 285.782 310.793 287.388 312.381C288.995 313.969 289.899 316.122 289.902 318.367V435.049C289.899 437.294 288.995 439.447 287.388 441.035C285.782 442.622 283.603 443.515 281.331 443.518Z" fill="#3F3D56"/>
<path d="M183.55 382.312C186.681 382.312 189.22 379.803 189.22 376.708C189.22 373.613 186.681 371.104 183.55 371.104C180.418 371.104 177.879 373.613 177.879 376.708C177.879 379.803 180.418 382.312 183.55 382.312Z" fill="white"/>
<path d="M878.318 210.443H625.464C624.122 210.442 622.836 209.914 621.888 208.977C620.939 208.04 620.406 206.769 620.404 205.443V158.345H622.428V205.443C622.429 206.239 622.749 207.001 623.318 207.564C623.887 208.126 624.659 208.442 625.464 208.443H878.318C879.123 208.442 879.895 208.126 880.464 207.564C881.033 207.001 881.353 206.239 881.354 205.443V158.016H883.378V205.443C883.376 206.769 882.843 208.04 881.894 208.977C880.946 209.914 879.66 210.442 878.318 210.443Z" fill="#3F3D56"/>
<path d="M969.979 157.345H375.799V159.345H969.979V157.345Z" fill="#3F3D56"/>
<path d="M375.842 175.39C385.455 175.39 393.248 167.689 393.248 158.189C393.248 148.689 385.455 140.988 375.842 140.988C366.229 140.988 358.436 148.689 358.436 158.189C358.436 167.689 366.229 175.39 375.842 175.39Z" fill="#6375FF"/>
<path d="M552.719 175.39C562.332 175.39 570.125 167.689 570.125 158.189C570.125 148.689 562.332 140.988 552.719 140.988C543.106 140.988 535.313 148.689 535.313 158.189C535.313 167.689 543.106 175.39 552.719 175.39Z" fill="#6375FF"/>
<path d="M672.757 225.949C682.37 225.949 690.163 218.248 690.163 208.748C690.163 199.248 682.37 191.547 672.757 191.547C663.144 191.547 655.351 199.248 655.351 208.748C655.351 218.248 663.144 225.949 672.757 225.949Z" fill="#3F3D56"/>
<path d="M764.013 225.949C773.626 225.949 781.419 218.248 781.419 208.748C781.419 199.248 773.626 191.547 764.013 191.547C754.4 191.547 746.607 199.248 746.607 208.748C746.607 218.248 754.4 225.949 764.013 225.949Z" fill="#CCCCCC"/>
<path d="M719.792 175.39C729.405 175.39 737.198 167.689 737.198 158.189C737.198 148.689 729.405 140.988 719.792 140.988C710.179 140.988 702.386 148.689 702.386 158.189C702.386 167.689 710.179 175.39 719.792 175.39Z" fill="#6375FF"/>
<path d="M967.594 175.39C977.207 175.39 985 167.689 985 158.189C985 148.689 977.207 140.988 967.594 140.988C957.981 140.988 950.188 148.689 950.188 158.189C950.188 167.689 957.981 175.39 967.594 175.39Z" fill="#6375FF"/>
<path d="M882.366 175.39C891.979 175.39 899.772 167.689 899.772 158.189C899.772 148.689 891.979 140.988 882.366 140.988C872.753 140.988 864.96 148.689 864.96 158.189C864.96 167.689 872.753 175.39 882.366 175.39Z" fill="#6375FF"/>
<path d="M429.817 159.345C429.549 159.345 429.291 159.24 429.102 159.052C428.912 158.865 428.805 158.611 428.805 158.345V108.985C428.807 107.66 429.34 106.389 430.289 105.451C431.237 104.514 432.523 103.987 433.864 103.985H483.116C483.385 103.985 483.642 104.091 483.832 104.278C484.022 104.466 484.128 104.72 484.128 104.985C484.128 105.251 484.022 105.505 483.832 105.692C483.642 105.88 483.385 105.985 483.116 105.985H433.864C433.06 105.986 432.288 106.302 431.719 106.865C431.15 107.427 430.83 108.19 430.829 108.985V158.345C430.829 158.611 430.722 158.865 430.533 159.052C430.343 159.24 430.085 159.345 429.817 159.345Z" fill="#3F3D56"/>
<path d="M485.431 121.813C495.044 121.813 502.837 114.112 502.837 104.612C502.837 95.1115 495.044 87.4102 485.431 87.4102C475.818 87.4102 468.025 95.1115 468.025 104.612C468.025 114.112 475.818 121.813 485.431 121.813Z" fill="#E6E6E6"/>
<path d="M819.381 158.345H817.357V108.985C817.358 107.66 817.892 106.389 818.84 105.451C819.789 104.514 821.075 103.987 822.416 103.985H871.668V105.985H822.416C821.611 105.986 820.84 106.302 820.271 106.865C819.702 107.427 819.382 108.19 819.381 108.985V158.345Z" fill="#3F3D56"/>
<path d="M873.983 121.813C883.596 121.813 891.388 114.112 891.388 104.612C891.388 95.1115 883.596 87.4102 873.983 87.4102C864.37 87.4102 856.577 95.1115 856.577 104.612C856.577 114.112 864.37 121.813 873.983 121.813Z" fill="#E6E6E6"/>
<path d="M425.764 293.224C429.58 293.224 432.664 294.364 435.016 296.644L431.74 300.496C430.06 299.152 428.272 298.48 426.376 298.48C425.488 298.48 424.816 298.636 424.36 298.948C423.904 299.26 423.676 299.704 423.676 300.28C423.676 300.712 423.796 301.072 424.036 301.36C424.3 301.624 424.72 301.876 425.296 302.116C425.896 302.356 426.856 302.692 428.176 303.124C430.816 303.964 432.712 305.02 433.864 306.292C435.04 307.564 435.628 309.304 435.628 311.512C435.628 313.12 435.196 314.548 434.332 315.796C433.492 317.02 432.28 317.98 430.696 318.676C429.112 319.372 427.24 319.72 425.08 319.72C422.872 319.72 420.928 319.372 419.248 318.676C417.568 317.98 416.152 317.068 415 315.94L418.636 311.944C420.532 313.576 422.584 314.392 424.792 314.392C425.824 314.392 426.604 314.188 427.132 313.78C427.66 313.348 427.924 312.796 427.924 312.124C427.924 311.62 427.804 311.2 427.564 310.864C427.348 310.528 426.952 310.216 426.376 309.928C425.8 309.64 424.96 309.328 423.856 308.992C420.952 308.08 418.924 306.988 417.772 305.716C416.62 304.42 416.044 302.812 416.044 300.892C416.044 299.332 416.464 297.976 417.304 296.824C418.144 295.672 419.296 294.784 420.76 294.16C422.248 293.536 423.916 293.224 425.764 293.224ZM446.676 299.056C449.748 299.056 452.16 299.956 453.912 301.756C455.688 303.556 456.576 306.112 456.576 309.424C456.576 311.488 456.168 313.3 455.352 314.86C454.56 316.42 453.42 317.62 451.932 318.46C450.444 319.3 448.692 319.72 446.676 319.72C443.604 319.72 441.18 318.82 439.404 317.02C437.652 315.22 436.776 312.664 436.776 309.352C436.776 307.288 437.172 305.476 437.964 303.916C438.78 302.356 439.932 301.156 441.42 300.316C442.908 299.476 444.66 299.056 446.676 299.056ZM446.676 304.168C445.764 304.168 445.104 304.576 444.696 305.392C444.288 306.208 444.084 307.528 444.084 309.352C444.084 311.248 444.288 312.604 444.696 313.42C445.104 314.212 445.764 314.608 446.676 314.608C447.588 314.608 448.248 314.2 448.656 313.384C449.064 312.568 449.268 311.248 449.268 309.424C449.268 307.528 449.064 306.184 448.656 305.392C448.248 304.576 447.588 304.168 446.676 304.168ZM468.816 296.608C468.12 296.608 467.616 296.788 467.304 297.148C466.992 297.508 466.836 298.132 466.836 299.02V299.776H471.3L470.508 304.6H466.836V319H459.708V304.6H457.115V299.776H459.708V298.66C459.708 296.572 460.404 294.856 461.796 293.512C463.188 292.168 465.204 291.496 467.844 291.496C468.852 291.496 469.872 291.628 470.904 291.892C471.936 292.132 472.8 292.444 473.496 292.828L471.624 297.328C470.736 296.848 469.8 296.608 468.816 296.608ZM485.453 318.064C484.709 318.592 483.797 319 482.717 319.288C481.661 319.576 480.653 319.72 479.693 319.72C477.317 319.696 475.553 319.036 474.401 317.74C473.273 316.42 472.709 314.476 472.709 311.908V304.6H470.405V299.776H472.709V295.744L479.837 294.916V299.776H484.157L483.437 304.6H479.837V311.836C479.837 312.676 479.969 313.276 480.233 313.636C480.497 313.972 480.869 314.14 481.349 314.14C481.949 314.14 482.549 313.972 483.149 313.636L485.453 318.064ZM512.754 299.776L508.974 319H500.802L498.714 306.112L496.734 319H488.598L484.746 299.776H491.946L493.098 313.564L495.618 299.776H502.278L504.294 313.564L505.914 299.776H512.754ZM530.175 312.772C530.175 313.444 530.259 313.948 530.427 314.284C530.595 314.596 530.895 314.836 531.327 315.004L529.887 319.576C528.591 319.48 527.535 319.24 526.719 318.856C525.903 318.448 525.231 317.8 524.703 316.912C523.455 318.784 521.523 319.72 518.907 319.72C517.011 319.72 515.475 319.156 514.299 318.028C513.147 316.876 512.571 315.4 512.571 313.6C512.571 311.464 513.363 309.832 514.947 308.704C516.531 307.576 518.835 307.012 521.859 307.012H523.227V306.544C523.227 305.584 523.035 304.936 522.651 304.6C522.267 304.264 521.535 304.096 520.455 304.096C519.879 304.096 519.135 304.192 518.223 304.384C517.335 304.552 516.423 304.792 515.487 305.104L513.939 300.568C515.115 300.088 516.387 299.716 517.755 299.452C519.147 299.188 520.407 299.056 521.535 299.056C524.559 299.056 526.755 299.644 528.123 300.82C529.491 301.972 530.175 303.748 530.175 306.148V312.772ZM521.103 314.716C521.535 314.716 521.931 314.608 522.291 314.392C522.675 314.176 522.987 313.9 523.227 313.564V310.72H522.471C521.463 310.72 520.719 310.9 520.239 311.26C519.759 311.62 519.519 312.172 519.519 312.916C519.519 313.468 519.663 313.912 519.951 314.248C520.239 314.56 520.623 314.716 521.103 314.716ZM545.035 299.164C545.659 299.164 546.307 299.272 546.979 299.488L545.863 306.364C545.215 306.172 544.627 306.076 544.099 306.076C543.043 306.076 542.251 306.424 541.723 307.12C541.219 307.816 540.811 308.86 540.499 310.252V319H533.371V299.776H539.599L540.175 303.376C540.583 302.104 541.231 301.084 542.119 300.316C543.007 299.548 543.979 299.164 545.035 299.164ZM565.155 309.136C565.155 309.736 565.107 310.492 565.011 311.404H553.347C553.539 312.7 553.935 313.576 554.535 314.032C555.159 314.464 556.047 314.68 557.199 314.68C557.871 314.68 558.555 314.548 559.251 314.284C559.947 313.996 560.715 313.564 561.555 312.988L564.435 316.876C562.107 318.772 559.467 319.72 556.515 319.72C553.107 319.72 550.527 318.784 548.775 316.912C547.023 315.016 546.147 312.52 546.147 309.424C546.147 307.504 546.507 305.764 547.227 304.204C547.971 302.62 549.063 301.372 550.503 300.46C551.943 299.524 553.683 299.056 555.723 299.056C557.619 299.056 559.275 299.452 560.691 300.244C562.107 301.036 563.199 302.188 563.967 303.7C564.759 305.212 565.155 307.024 565.155 309.136ZM558.135 307.12C558.111 305.992 557.931 305.116 557.595 304.492C557.283 303.868 556.707 303.556 555.867 303.556C555.075 303.556 554.475 303.832 554.067 304.384C553.683 304.936 553.431 305.932 553.311 307.372H558.135V307.12ZM593.608 292.216V319H587.272L587.02 317.02C585.652 318.82 583.84 319.72 581.584 319.72C579.16 319.72 577.336 318.796 576.112 316.948C574.888 315.1 574.276 312.544 574.276 309.28C574.276 307.312 574.612 305.56 575.284 304.024C575.956 302.464 576.892 301.252 578.092 300.388C579.316 299.5 580.72 299.056 582.304 299.056C583.96 299.056 585.352 299.56 586.48 300.568V291.496L593.608 292.216ZM583.996 314.608C585.004 314.608 585.832 314.044 586.48 312.916V305.212C586.144 304.852 585.808 304.588 585.472 304.42C585.136 304.228 584.764 304.132 584.356 304.132C583.516 304.132 582.844 304.552 582.34 305.392C581.836 306.208 581.584 307.528 581.584 309.352C581.584 311.464 581.788 312.868 582.196 313.564C582.628 314.26 583.228 314.608 583.996 314.608ZM614.725 309.136C614.725 309.736 614.677 310.492 614.581 311.404H602.917C603.109 312.7 603.505 313.576 604.105 314.032C604.729 314.464 605.617 314.68 606.769 314.68C607.441 314.68 608.125 314.548 608.821 314.284C609.517 313.996 610.285 313.564 611.125 312.988L614.005 316.876C611.677 318.772 609.037 319.72 606.085 319.72C602.677 319.72 600.097 318.784 598.345 316.912C596.593 315.016 595.717 312.52 595.717 309.424C595.717 307.504 596.077 305.764 596.797 304.204C597.541 302.62 598.633 301.372 600.073 300.46C601.513 299.524 603.253 299.056 605.293 299.056C607.189 299.056 608.845 299.452 610.261 300.244C611.677 301.036 612.769 302.188 613.537 303.7C614.329 305.212 614.725 307.024 614.725 309.136ZM607.705 307.12C607.681 305.992 607.501 305.116 607.165 304.492C606.853 303.868 606.277 303.556 605.437 303.556C604.645 303.556 604.045 303.832 603.637 304.384C603.253 304.936 603.001 305.932 602.881 307.372H607.705V307.12ZM634.269 299.776L628.545 319H620.121L614.253 299.776H621.993L624.405 313.852L627.069 299.776H634.269ZM653.011 309.136C653.011 309.736 652.963 310.492 652.867 311.404H641.203C641.395 312.7 641.791 313.576 642.391 314.032C643.015 314.464 643.903 314.68 645.055 314.68C645.727 314.68 646.411 314.548 647.107 314.284C647.803 313.996 648.571 313.564 649.411 312.988L652.291 316.876C649.963 318.772 647.323 319.72 644.371 319.72C640.963 319.72 638.383 318.784 636.631 316.912C634.879 315.016 634.003 312.52 634.003 309.424C634.003 307.504 634.363 305.764 635.083 304.204C635.827 302.62 636.919 301.372 638.359 300.46C639.799 299.524 641.539 299.056 643.579 299.056C645.475 299.056 647.131 299.452 648.547 300.244C649.963 301.036 651.055 302.188 651.823 303.7C652.615 305.212 653.011 307.024 653.011 309.136ZM645.991 307.12C645.967 305.992 645.787 305.116 645.451 304.492C645.139 303.868 644.563 303.556 643.723 303.556C642.931 303.556 642.331 303.832 641.923 304.384C641.539 304.936 641.287 305.932 641.167 307.372H645.991V307.12ZM660.81 319.72C658.866 319.72 657.366 319.18 656.31 318.1C655.278 316.996 654.762 315.448 654.762 313.456V292.216L661.89 291.496V313.168C661.89 313.816 662.178 314.14 662.754 314.14C663.018 314.14 663.27 314.092 663.51 313.996L664.77 319.072C663.642 319.504 662.322 319.72 660.81 319.72ZM674.559 299.056C677.631 299.056 680.043 299.956 681.795 301.756C683.571 303.556 684.459 306.112 684.459 309.424C684.459 311.488 684.051 313.3 683.235 314.86C682.443 316.42 681.303 317.62 679.815 318.46C678.327 319.3 676.575 319.72 674.559 319.72C671.487 319.72 669.063 318.82 667.287 317.02C665.535 315.22 664.659 312.664 664.659 309.352C664.659 307.288 665.055 305.476 665.847 303.916C666.663 302.356 667.815 301.156 669.303 300.316C670.791 299.476 672.543 299.056 674.559 299.056ZM674.559 304.168C673.647 304.168 672.987 304.576 672.579 305.392C672.171 306.208 671.967 307.528 671.967 309.352C671.967 311.248 672.171 312.604 672.579 313.42C672.987 314.212 673.647 314.608 674.559 314.608C675.471 314.608 676.131 314.2 676.539 313.384C676.947 312.568 677.151 311.248 677.151 309.424C677.151 307.528 676.947 306.184 676.539 305.392C676.131 304.576 675.471 304.168 674.559 304.168ZM698.642 299.056C701.018 299.056 702.806 299.956 704.006 301.756C705.23 303.556 705.842 306.076 705.842 309.316C705.842 311.308 705.518 313.096 704.87 314.68C704.246 316.24 703.346 317.476 702.17 318.388C701.018 319.276 699.686 319.72 698.174 319.72C696.35 319.72 694.862 319.084 693.71 317.812V326.452L686.582 327.172V299.776H692.918L693.206 301.648C693.974 300.736 694.826 300.076 695.762 299.668C696.722 299.26 697.682 299.056 698.642 299.056ZM695.834 314.644C697.634 314.644 698.534 312.904 698.534 309.424C698.534 307.96 698.438 306.844 698.246 306.076C698.054 305.308 697.79 304.804 697.454 304.564C697.142 304.3 696.734 304.168 696.23 304.168C695.222 304.168 694.382 304.768 693.71 305.968V313.312C694.022 313.792 694.346 314.14 694.682 314.356C695.018 314.548 695.402 314.644 695.834 314.644ZM726.241 309.136C726.241 309.736 726.193 310.492 726.097 311.404H714.433C714.625 312.7 715.021 313.576 715.621 314.032C716.245 314.464 717.133 314.68 718.285 314.68C718.957 314.68 719.641 314.548 720.337 314.284C721.033 313.996 721.801 313.564 722.641 312.988L725.521 316.876C723.193 318.772 720.553 319.72 717.601 319.72C714.193 319.72 711.613 318.784 709.861 316.912C708.109 315.016 707.233 312.52 707.233 309.424C707.233 307.504 707.593 305.764 708.313 304.204C709.057 302.62 710.149 301.372 711.589 300.46C713.029 299.524 714.769 299.056 716.809 299.056C718.705 299.056 720.361 299.452 721.777 300.244C723.193 301.036 724.285 302.188 725.053 303.7C725.845 305.212 726.241 307.024 726.241 309.136ZM719.221 307.12C719.197 305.992 719.017 305.116 718.681 304.492C718.369 303.868 717.793 303.556 716.953 303.556C716.161 303.556 715.561 303.832 715.153 304.384C714.769 304.936 714.517 305.932 714.397 307.372H719.221V307.12ZM739.836 299.164C740.46 299.164 741.108 299.272 741.78 299.488L740.664 306.364C740.016 306.172 739.428 306.076 738.9 306.076C737.844 306.076 737.052 306.424 736.524 307.12C736.02 307.816 735.612 308.86 735.3 310.252V319H728.172V299.776H734.4L734.976 303.376C735.384 302.104 736.032 301.084 736.92 300.316C737.808 299.548 738.78 299.164 739.836 299.164ZM742.863 312.304C743.919 312.304 744.795 312.664 745.491 313.384C746.211 314.08 746.571 314.956 746.571 316.012C746.571 316.588 746.463 317.188 746.247 317.812C746.055 318.412 745.683 319.336 745.131 320.584L742.899 325.624H739.227L740.811 319.036C740.283 318.7 739.875 318.268 739.587 317.74C739.299 317.212 739.155 316.624 739.155 315.976C739.155 314.92 739.503 314.044 740.199 313.348C740.919 312.652 741.807 312.304 742.863 312.304ZM765.722 299.056C768.458 299.056 770.786 299.908 772.706 301.612L769.754 305.752C768.65 304.864 767.522 304.42 766.37 304.42C765.266 304.42 764.45 304.804 763.922 305.572C763.394 306.34 763.13 307.66 763.13 309.532C763.13 311.332 763.394 312.568 763.922 313.24C764.474 313.888 765.266 314.212 766.298 314.212C766.85 314.212 767.366 314.128 767.846 313.96C768.326 313.768 768.926 313.444 769.646 312.988L772.706 317.344C770.762 318.928 768.494 319.72 765.902 319.72C763.814 319.72 762.002 319.3 760.466 318.46C758.93 317.596 757.754 316.396 756.938 314.86C756.122 313.3 755.714 311.524 755.714 309.532C755.714 307.516 756.122 305.716 756.938 304.132C757.778 302.548 758.954 301.312 760.466 300.424C761.978 299.512 763.73 299.056 765.722 299.056ZM790.841 319H784.613L784.361 316.912C783.041 318.784 781.145 319.72 778.673 319.72C776.873 319.72 775.529 319.18 774.641 318.1C773.753 317.02 773.309 315.52 773.309 313.6V299.776H780.437V312.664C780.437 313.36 780.533 313.852 780.725 314.14C780.941 314.404 781.241 314.536 781.625 314.536C781.961 314.536 782.309 314.404 782.669 314.14C783.053 313.876 783.401 313.48 783.713 312.952V299.776H790.841V319ZM805.543 299.164C806.167 299.164 806.815 299.272 807.487 299.488L806.371 306.364C805.723 306.172 805.135 306.076 804.607 306.076C803.551 306.076 802.759 306.424 802.231 307.12C801.727 307.816 801.319 308.86 801.007 310.252V319H793.879V299.776H800.107L800.683 303.376C801.091 302.104 801.739 301.084 802.627 300.316C803.515 299.548 804.487 299.164 805.543 299.164ZM820.309 299.164C820.933 299.164 821.581 299.272 822.253 299.488L821.137 306.364C820.489 306.172 819.901 306.076 819.373 306.076C818.317 306.076 817.525 306.424 816.997 307.12C816.493 307.816 816.085 308.86 815.773 310.252V319H808.645V299.776H814.873L815.449 303.376C815.857 302.104 816.505 301.084 817.393 300.316C818.281 299.548 819.253 299.164 820.309 299.164ZM840.429 309.136C840.429 309.736 840.381 310.492 840.285 311.404H828.621C828.813 312.7 829.209 313.576 829.809 314.032C830.433 314.464 831.321 314.68 832.473 314.68C833.145 314.68 833.829 314.548 834.525 314.284C835.221 313.996 835.989 313.564 836.829 312.988L839.709 316.876C837.381 318.772 834.741 319.72 831.789 319.72C828.381 319.72 825.801 318.784 824.049 316.912C822.297 315.016 821.421 312.52 821.421 309.424C821.421 307.504 821.781 305.764 822.501 304.204C823.245 302.62 824.337 301.372 825.777 300.46C827.217 299.524 828.957 299.056 830.997 299.056C832.893 299.056 834.549 299.452 835.965 300.244C837.381 301.036 838.473 302.188 839.241 303.7C840.033 305.212 840.429 307.024 840.429 309.136ZM833.409 307.12C833.385 305.992 833.205 305.116 832.869 304.492C832.557 303.868 831.981 303.556 831.141 303.556C830.349 303.556 829.749 303.832 829.341 304.384C828.957 304.936 828.705 305.932 828.585 307.372H833.409V307.12ZM854.924 299.056C856.532 299.056 857.792 299.56 858.704 300.568C859.64 301.576 860.108 302.992 860.108 304.816V319H852.98V306.112C852.98 305.392 852.884 304.9 852.692 304.636C852.524 304.372 852.26 304.24 851.9 304.24C851.108 304.24 850.304 304.876 849.488 306.148V319H842.36V299.776H848.588L849.092 301.756C849.98 300.82 850.88 300.136 851.792 299.704C852.728 299.272 853.772 299.056 854.924 299.056ZM876.425 318.064C875.681 318.592 874.769 319 873.689 319.288C872.633 319.576 871.625 319.72 870.665 319.72C868.289 319.696 866.525 319.036 865.373 317.74C864.245 316.42 863.681 314.476 863.681 311.908V304.6H861.377V299.776H863.681V295.744L870.809 294.916V299.776H875.129L874.409 304.6H870.809V311.836C870.809 312.676 870.941 313.276 871.205 313.636C871.469 313.972 871.841 314.14 872.321 314.14C872.921 314.14 873.521 313.972 874.121 313.636L876.425 318.064ZM882.927 319.72C880.983 319.72 879.483 319.18 878.427 318.1C877.395 316.996 876.879 315.448 876.879 313.456V292.216L884.007 291.496V313.168C884.007 313.816 884.295 314.14 884.871 314.14C885.135 314.14 885.387 314.092 885.627 313.996L886.887 319.072C885.759 319.504 884.439 319.72 882.927 319.72ZM899.848 318.964C899.032 321.628 897.64 323.644 895.672 325.012C893.704 326.38 891.112 327.112 887.896 327.208L887.14 322.348C888.988 322.156 890.356 321.82 891.244 321.34C892.156 320.86 892.864 320.08 893.368 319H890.92L885.448 299.776H893.008L895.42 314.644L898.408 299.776H905.752L899.848 318.964ZM442.828 339.776L439.048 359H430.876L428.788 346.112L426.808 359H418.672L414.82 339.776H422.02L423.172 353.564L425.692 339.776H432.352L434.368 353.564L435.988 339.776H442.828ZM453.145 339.056C456.217 339.056 458.629 339.956 460.381 341.756C462.157 343.556 463.045 346.112 463.045 349.424C463.045 351.488 462.637 353.3 461.821 354.86C461.029 356.42 459.889 357.62 458.401 358.46C456.913 359.3 455.161 359.72 453.145 359.72C450.073 359.72 447.649 358.82 445.873 357.02C444.121 355.22 443.245 352.664 443.245 349.352C443.245 347.288 443.641 345.476 444.433 343.916C445.249 342.356 446.401 341.156 447.889 340.316C449.377 339.476 451.129 339.056 453.145 339.056ZM453.145 344.168C452.233 344.168 451.573 344.576 451.165 345.392C450.757 346.208 450.553 347.528 450.553 349.352C450.553 351.248 450.757 352.604 451.165 353.42C451.573 354.212 452.233 354.608 453.145 354.608C454.057 354.608 454.717 354.2 455.125 353.384C455.533 352.568 455.737 351.248 455.737 349.424C455.737 347.528 455.533 346.184 455.125 345.392C454.717 344.576 454.057 344.168 453.145 344.168ZM476.832 339.164C477.456 339.164 478.104 339.272 478.776 339.488L477.66 346.364C477.012 346.172 476.424 346.076 475.896 346.076C474.84 346.076 474.048 346.424 473.52 347.12C473.016 347.816 472.608 348.86 472.296 350.252V359H465.168V339.776H471.396L471.972 343.376C472.38 342.104 473.028 341.084 473.916 340.316C474.804 339.548 475.776 339.164 476.832 339.164ZM487.062 331.496V359H479.934V332.216L487.062 331.496ZM499.41 339.776L494.334 348.2L499.698 359H491.814L487.206 348.488L492.354 339.776H499.41ZM507.804 339.776V359H500.676V339.776H507.804ZM504.24 329.156C505.392 329.156 506.34 329.528 507.084 330.272C507.852 330.992 508.236 331.892 508.236 332.972C508.236 334.052 507.852 334.964 507.084 335.708C506.34 336.428 505.392 336.788 504.24 336.788C503.088 336.788 502.128 336.428 501.36 335.708C500.616 334.964 500.244 334.052 500.244 332.972C500.244 331.892 500.616 330.992 501.36 330.272C502.128 329.528 503.088 329.156 504.24 329.156ZM523.4 339.056C525.008 339.056 526.268 339.56 527.18 340.568C528.116 341.576 528.584 342.992 528.584 344.816V359H521.456V346.112C521.456 345.392 521.36 344.9 521.168 344.636C521 344.372 520.736 344.24 520.376 344.24C519.584 344.24 518.78 344.876 517.964 346.148V359H510.836V339.776H517.064L517.568 341.756C518.456 340.82 519.356 340.136 520.268 339.704C521.204 339.272 522.248 339.056 523.4 339.056ZM550.446 341.072C549.174 341.648 547.35 341.936 544.974 341.936C546.27 342.488 547.218 343.148 547.818 343.916C548.418 344.66 548.718 345.68 548.718 346.976C548.718 348.176 548.37 349.268 547.674 350.252C546.978 351.212 545.982 351.968 544.686 352.52C543.414 353.048 541.914 353.312 540.186 353.312C539.25 353.312 538.566 353.276 538.134 353.204C537.846 353.348 537.702 353.576 537.702 353.888C537.702 354.152 537.822 354.368 538.062 354.536C538.302 354.704 538.806 354.788 539.574 354.788H542.346C543.93 354.788 545.31 355.028 546.486 355.508C547.662 355.988 548.562 356.672 549.186 357.56C549.834 358.424 550.158 359.408 550.158 360.512C550.158 362.576 549.234 364.196 547.386 365.372C545.562 366.572 542.934 367.172 539.502 367.172C536.982 367.172 535.002 366.908 533.562 366.38C532.146 365.852 531.15 365.12 530.574 364.184C530.022 363.248 529.746 362.108 529.746 360.764H536.118C536.118 361.268 536.214 361.652 536.406 361.916C536.598 362.18 536.946 362.372 537.45 362.492C537.954 362.612 538.71 362.672 539.718 362.672C541.014 362.672 541.878 362.516 542.31 362.204C542.766 361.916 542.994 361.52 542.994 361.016C542.994 360.608 542.826 360.272 542.49 360.008C542.178 359.744 541.662 359.612 540.942 359.612H538.278C536.07 359.612 534.438 359.264 533.382 358.568C532.326 357.848 531.798 356.912 531.798 355.76C531.798 355.016 532.026 354.296 532.482 353.6C532.938 352.904 533.526 352.34 534.246 351.908C532.95 351.212 532.026 350.42 531.474 349.532C530.922 348.644 530.646 347.564 530.646 346.292C530.646 344.012 531.462 342.236 533.094 340.964C534.726 339.692 536.922 339.056 539.682 339.056C541.506 339.128 543.138 338.9 544.578 338.372C546.042 337.82 547.482 337.064 548.898 336.104L550.446 341.072ZM539.898 343.664C539.25 343.664 538.722 343.88 538.314 344.312C537.906 344.744 537.702 345.356 537.702 346.148C537.702 347.012 537.906 347.672 538.314 348.128C538.722 348.56 539.25 348.776 539.898 348.776C541.362 348.776 542.094 347.864 542.094 346.04C542.094 345.2 541.914 344.6 541.554 344.24C541.194 343.856 540.642 343.664 539.898 343.664ZM576.511 352.772C576.511 353.444 576.595 353.948 576.763 354.284C576.931 354.596 577.231 354.836 577.663 355.004L576.223 359.576C574.927 359.48 573.871 359.24 573.055 358.856C572.239 358.448 571.567 357.8 571.039 356.912C569.791 358.784 567.859 359.72 565.243 359.72C563.347 359.72 561.811 359.156 560.635 358.028C559.483 356.876 558.907 355.4 558.907 353.6C558.907 351.464 559.699 349.832 561.283 348.704C562.867 347.576 565.171 347.012 568.195 347.012H569.563V346.544C569.563 345.584 569.371 344.936 568.987 344.6C568.603 344.264 567.871 344.096 566.791 344.096C566.215 344.096 565.471 344.192 564.559 344.384C563.671 344.552 562.759 344.792 561.823 345.104L560.275 340.568C561.451 340.088 562.723 339.716 564.091 339.452C565.483 339.188 566.743 339.056 567.871 339.056C570.895 339.056 573.091 339.644 574.459 340.82C575.827 341.972 576.511 343.748 576.511 346.148V352.772ZM567.439 354.716C567.871 354.716 568.267 354.608 568.627 354.392C569.011 354.176 569.323 353.9 569.563 353.564V350.72H568.807C567.799 350.72 567.055 350.9 566.575 351.26C566.095 351.62 565.855 352.172 565.855 352.916C565.855 353.468 565.999 353.912 566.287 354.248C566.575 354.56 566.959 354.716 567.439 354.716ZM593.171 358.064C592.427 358.592 591.515 359 590.435 359.288C589.379 359.576 588.371 359.72 587.411 359.72C585.035 359.696 583.271 359.036 582.119 357.74C580.991 356.42 580.427 354.476 580.427 351.908V344.6H578.123V339.776H580.427V335.744L587.555 334.916V339.776H591.875L591.155 344.6H587.555V351.836C587.555 352.676 587.687 353.276 587.951 353.636C588.215 353.972 588.587 354.14 589.067 354.14C589.667 354.14 590.267 353.972 590.867 353.636L593.171 358.064ZM748.687 339.776L744.907 359H736.735L734.647 346.112L732.667 359H724.531L720.679 339.776H727.879L729.031 353.564L731.551 339.776H738.211L740.227 353.564L741.847 339.776H748.687ZM757.132 339.776V359H750.004V339.776H757.132ZM753.568 329.156C754.72 329.156 755.668 329.528 756.412 330.272C757.18 330.992 757.564 331.892 757.564 332.972C757.564 334.052 757.18 334.964 756.412 335.708C755.668 336.428 754.72 336.788 753.568 336.788C752.416 336.788 751.456 336.428 750.688 335.708C749.944 334.964 749.572 334.052 749.572 332.972C749.572 331.892 749.944 330.992 750.688 330.272C751.456 329.528 752.416 329.156 753.568 329.156ZM773.628 358.064C772.884 358.592 771.972 359 770.892 359.288C769.836 359.576 768.828 359.72 767.868 359.72C765.492 359.696 763.728 359.036 762.576 357.74C761.448 356.42 760.884 354.476 760.884 351.908V344.6H758.58V339.776H760.884V335.744L768.012 334.916V339.776H772.332L771.612 344.6H768.012V351.836C768.012 352.676 768.144 353.276 768.408 353.636C768.672 353.972 769.044 354.14 769.524 354.14C770.124 354.14 770.724 353.972 771.324 353.636L773.628 358.064ZM787.178 339.056C788.786 339.056 790.046 339.56 790.958 340.568C791.894 341.576 792.362 342.992 792.362 344.816V359H785.234V346.112C785.234 345.392 785.138 344.9 784.946 344.636C784.778 344.372 784.514 344.24 784.154 344.24C783.362 344.24 782.558 344.876 781.742 346.148V359H774.614V332.216L781.742 331.496V341.504C782.558 340.64 783.398 340.016 784.262 339.632C785.126 339.248 786.098 339.056 787.178 339.056ZM811.945 350.072H810.577V359H803.161V333.944H812.341C815.965 333.944 818.665 334.592 820.441 335.888C822.217 337.16 823.105 339.164 823.105 341.9C823.105 343.46 822.757 344.756 822.061 345.788C821.365 346.82 820.237 347.792 818.677 348.704L824.797 359H816.589L811.945 350.072ZM810.577 345.104H812.521C813.529 345.104 814.285 344.84 814.789 344.312C815.293 343.784 815.545 342.98 815.545 341.9C815.545 339.98 814.417 339.02 812.161 339.02H810.577V345.104ZM843.171 349.136C843.171 349.736 843.123 350.492 843.027 351.404H831.363C831.555 352.7 831.951 353.576 832.551 354.032C833.175 354.464 834.063 354.68 835.215 354.68C835.887 354.68 836.571 354.548 837.267 354.284C837.963 353.996 838.731 353.564 839.571 352.988L842.451 356.876C840.123 358.772 837.483 359.72 834.531 359.72C831.123 359.72 828.543 358.784 826.791 356.912C825.039 355.016 824.163 352.52 824.163 349.424C824.163 347.504 824.523 345.764 825.243 344.204C825.987 342.62 827.079 341.372 828.519 340.46C829.959 339.524 831.699 339.056 833.739 339.056C835.635 339.056 837.291 339.452 838.707 340.244C840.123 341.036 841.215 342.188 841.983 343.7C842.775 345.212 843.171 347.024 843.171 349.136ZM836.151 347.12C836.127 345.992 835.947 345.116 835.611 344.492C835.299 343.868 834.723 343.556 833.883 343.556C833.091 343.556 832.491 343.832 832.083 344.384C831.699 344.936 831.447 345.932 831.327 347.372H836.151V347.12ZM861.382 352.772C861.382 353.444 861.466 353.948 861.634 354.284C861.802 354.596 862.102 354.836 862.534 355.004L861.094 359.576C859.798 359.48 858.742 359.24 857.926 358.856C857.11 358.448 856.438 357.8 855.91 356.912C854.662 358.784 852.73 359.72 850.114 359.72C848.218 359.72 846.682 359.156 845.506 358.028C844.354 356.876 843.778 355.4 843.778 353.6C843.778 351.464 844.57 349.832 846.154 348.704C847.738 347.576 850.042 347.012 853.066 347.012H854.434V346.544C854.434 345.584 854.242 344.936 853.858 344.6C853.474 344.264 852.742 344.096 851.662 344.096C851.086 344.096 850.342 344.192 849.43 344.384C848.542 344.552 847.63 344.792 846.694 345.104L845.146 340.568C846.322 340.088 847.594 339.716 848.962 339.452C850.354 339.188 851.614 339.056 852.742 339.056C855.766 339.056 857.962 339.644 859.33 340.82C860.698 341.972 861.382 343.748 861.382 346.148V352.772ZM852.31 354.716C852.742 354.716 853.138 354.608 853.498 354.392C853.882 354.176 854.194 353.9 854.434 353.564V350.72H853.678C852.67 350.72 851.926 350.9 851.446 351.26C850.966 351.62 850.726 352.172 850.726 352.916C850.726 353.468 850.87 353.912 851.158 354.248C851.446 354.56 851.83 354.716 852.31 354.716ZM873.686 339.056C876.422 339.056 878.75 339.908 880.67 341.612L877.718 345.752C876.614 344.864 875.486 344.42 874.334 344.42C873.23 344.42 872.414 344.804 871.886 345.572C871.358 346.34 871.094 347.66 871.094 349.532C871.094 351.332 871.358 352.568 871.886 353.24C872.438 353.888 873.23 354.212 874.262 354.212C874.814 354.212 875.33 354.128 875.81 353.96C876.29 353.768 876.89 353.444 877.61 352.988L880.67 357.344C878.726 358.928 876.458 359.72 873.866 359.72C871.778 359.72 869.966 359.3 868.43 358.46C866.894 357.596 865.718 356.396 864.902 354.86C864.086 353.3 863.678 351.524 863.678 349.532C863.678 347.516 864.086 345.716 864.902 344.132C865.742 342.548 866.918 341.312 868.43 340.424C869.942 339.512 871.694 339.056 873.686 339.056ZM895.269 358.064C894.525 358.592 893.613 359 892.533 359.288C891.477 359.576 890.469 359.72 889.509 359.72C887.133 359.696 885.369 359.036 884.217 357.74C883.089 356.42 882.525 354.476 882.525 351.908V344.6H880.221V339.776H882.525V335.744L889.653 334.916V339.776H893.973L893.253 344.6H889.653V351.836C889.653 352.676 889.785 353.276 890.049 353.636C890.313 353.972 890.685 354.14 891.165 354.14C891.765 354.14 892.365 353.972 892.965 353.636L895.269 358.064ZM920.796 352.772C920.796 353.444 920.88 353.948 921.048 354.284C921.216 354.596 921.516 354.836 921.948 355.004L920.508 359.576C919.212 359.48 918.156 359.24 917.34 358.856C916.524 358.448 915.852 357.8 915.324 356.912C914.076 358.784 912.144 359.72 909.528 359.72C907.632 359.72 906.096 359.156 904.92 358.028C903.768 356.876 903.192 355.4 903.192 353.6C903.192 351.464 903.984 349.832 905.568 348.704C907.152 347.576 909.456 347.012 912.48 347.012H913.848V346.544C913.848 345.584 913.656 344.936 913.272 344.6C912.888 344.264 912.156 344.096 911.076 344.096C910.5 344.096 909.756 344.192 908.844 344.384C907.956 344.552 907.044 344.792 906.108 345.104L904.56 340.568C905.736 340.088 907.008 339.716 908.376 339.452C909.768 339.188 911.028 339.056 912.156 339.056C915.18 339.056 917.376 339.644 918.744 340.82C920.112 341.972 920.796 343.748 920.796 346.148V352.772ZM911.724 354.716C912.156 354.716 912.552 354.608 912.912 354.392C913.296 354.176 913.608 353.9 913.848 353.564V350.72H913.092C912.084 350.72 911.34 350.9 910.86 351.26C910.38 351.62 910.14 352.172 910.14 352.916C910.14 353.468 910.284 353.912 910.572 354.248C910.86 354.56 911.244 354.716 911.724 354.716ZM936.556 339.056C938.164 339.056 939.424 339.56 940.336 340.568C941.272 341.576 941.74 342.992 941.74 344.816V359H934.612V346.112C934.612 345.392 934.516 344.9 934.324 344.636C934.156 344.372 933.892 344.24 933.532 344.24C932.74 344.24 931.936 344.876 931.12 346.148V359H923.992V339.776H930.22L930.724 341.756C931.612 340.82 932.512 340.136 933.424 339.704C934.36 339.272 935.404 339.056 936.556 339.056ZM963.206 332.216V359H956.87L956.618 357.02C955.25 358.82 953.438 359.72 951.182 359.72C948.758 359.72 946.934 358.796 945.71 356.948C944.486 355.1 943.874 352.544 943.874 349.28C943.874 347.312 944.21 345.56 944.882 344.024C945.554 342.464 946.49 341.252 947.69 340.388C948.914 339.5 950.318 339.056 951.902 339.056C953.558 339.056 954.95 339.56 956.078 340.568V331.496L963.206 332.216ZM953.594 354.608C954.602 354.608 955.43 354.044 956.078 352.916V345.212C955.742 344.852 955.406 344.588 955.07 344.42C954.734 344.228 954.362 344.132 953.954 344.132C953.114 344.132 952.442 344.552 951.938 345.392C951.434 346.208 951.182 347.528 951.182 349.352C951.182 351.464 951.386 352.868 951.794 353.564C952.226 354.26 952.826 354.608 953.594 354.608ZM416.548 399V373.944H432.46L431.704 379.092H423.964V384.564H430.768V389.712H423.964V399H416.548ZM448.472 392.772C448.472 393.444 448.556 393.948 448.724 394.284C448.892 394.596 449.192 394.836 449.624 395.004L448.184 399.576C446.888 399.48 445.832 399.24 445.016 398.856C444.2 398.448 443.528 397.8 443 396.912C441.752 398.784 439.82 399.72 437.204 399.72C435.308 399.72 433.772 399.156 432.596 398.028C431.444 396.876 430.868 395.4 430.868 393.6C430.868 391.464 431.66 389.832 433.244 388.704C434.828 387.576 437.132 387.012 440.156 387.012H441.524V386.544C441.524 385.584 441.332 384.936 440.948 384.6C440.564 384.264 439.832 384.096 438.752 384.096C438.176 384.096 437.432 384.192 436.52 384.384C435.632 384.552 434.72 384.792 433.784 385.104L432.236 380.568C433.412 380.088 434.684 379.716 436.052 379.452C437.444 379.188 438.704 379.056 439.832 379.056C442.856 379.056 445.052 379.644 446.42 380.82C447.788 381.972 448.472 383.748 448.472 386.148V392.772ZM439.4 394.716C439.832 394.716 440.228 394.608 440.588 394.392C440.972 394.176 441.284 393.9 441.524 393.564V390.72H440.768C439.76 390.72 439.016 390.9 438.536 391.26C438.056 391.62 437.816 392.172 437.816 392.916C437.816 393.468 437.96 393.912 438.248 394.248C438.536 394.56 438.92 394.716 439.4 394.716ZM459.021 379.056C460.437 379.056 461.793 379.284 463.089 379.74C464.409 380.172 465.513 380.772 466.401 381.54L463.881 385.392C463.185 384.96 462.441 384.624 461.649 384.384C460.857 384.12 460.077 383.988 459.309 383.988C458.229 383.988 457.689 384.276 457.689 384.852C457.689 385.092 457.761 385.296 457.905 385.464C458.049 385.608 458.385 385.8 458.913 386.04C459.465 386.256 460.341 386.544 461.541 386.904C463.461 387.504 464.877 388.272 465.789 389.208C466.725 390.12 467.193 391.416 467.193 393.096C467.193 394.392 466.797 395.544 466.005 396.552C465.237 397.56 464.157 398.34 462.765 398.892C461.397 399.444 459.837 399.72 458.085 399.72C456.405 399.72 454.821 399.456 453.333 398.928C451.869 398.376 450.633 397.62 449.625 396.66L453.009 392.916C453.729 393.492 454.509 393.96 455.349 394.32C456.213 394.656 457.065 394.824 457.905 394.824C458.553 394.824 459.045 394.728 459.381 394.536C459.741 394.32 459.921 394.02 459.921 393.636C459.921 393.3 459.837 393.048 459.669 392.88C459.525 392.688 459.213 392.508 458.733 392.34C458.253 392.148 457.413 391.872 456.213 391.512C452.493 390.408 450.633 388.332 450.633 385.284C450.633 384.108 450.957 383.052 451.605 382.116C452.277 381.18 453.237 380.436 454.485 379.884C455.757 379.332 457.269 379.056 459.021 379.056ZM482.535 398.064C481.791 398.592 480.879 399 479.799 399.288C478.743 399.576 477.735 399.72 476.775 399.72C474.399 399.696 472.635 399.036 471.483 397.74C470.355 396.42 469.791 394.476 469.791 391.908V384.6H467.487V379.776H469.791V375.744L476.919 374.916V379.776H481.239L480.519 384.6H476.919V391.836C476.919 392.676 477.051 393.276 477.315 393.636C477.579 393.972 477.951 394.14 478.431 394.14C479.031 394.14 479.631 393.972 480.231 393.636L482.535 398.064ZM496.696 399L495.724 394.14H489.784L488.848 399H481.108L488.416 373.944H497.272L504.544 399H496.696ZM490.828 388.956H494.68L492.736 379.128L490.828 388.956ZM514.213 373.944C517.645 373.944 520.309 374.664 522.205 376.104C524.125 377.52 525.085 379.608 525.085 382.368C525.085 385.224 524.173 387.408 522.349 388.92C520.549 390.432 518.113 391.188 515.041 391.188H512.593V399H505.177V373.944H514.213ZM514.321 385.968C516.457 385.968 517.525 384.768 517.525 382.368C517.525 380.184 516.385 379.092 514.105 379.092H512.593V385.968H514.321ZM534.601 373.944V399H527.185V373.944H534.601ZM540.468 392.304C541.5 392.304 542.376 392.676 543.096 393.42C543.816 394.14 544.176 395.004 544.176 396.012C544.176 397.02 543.816 397.896 543.096 398.64C542.376 399.36 541.5 399.72 540.468 399.72C539.436 399.72 538.56 399.36 537.84 398.64C537.12 397.896 536.76 397.02 536.76 396.012C536.76 395.004 537.12 394.14 537.84 393.42C538.56 392.676 539.436 392.304 540.468 392.304Z" fill="#E0E0E0"/>
<path d="M611.319 333.224C615.135 333.224 618.219 334.364 620.571 336.644L617.295 340.496C615.615 339.152 613.827 338.48 611.931 338.48C611.043 338.48 610.371 338.636 609.915 338.948C609.459 339.26 609.231 339.704 609.231 340.28C609.231 340.712 609.351 341.072 609.591 341.36C609.855 341.624 610.275 341.876 610.851 342.116C611.451 342.356 612.411 342.692 613.731 343.124C616.371 343.964 618.267 345.02 619.419 346.292C620.595 347.564 621.183 349.304 621.183 351.512C621.183 353.12 620.751 354.548 619.887 355.796C619.047 357.02 617.835 357.98 616.251 358.676C614.667 359.372 612.795 359.72 610.635 359.72C608.427 359.72 606.483 359.372 604.803 358.676C603.123 357.98 601.707 357.068 600.555 355.94L604.191 351.944C606.087 353.576 608.139 354.392 610.347 354.392C611.379 354.392 612.159 354.188 612.687 353.78C613.215 353.348 613.479 352.796 613.479 352.124C613.479 351.62 613.359 351.2 613.119 350.864C612.903 350.528 612.507 350.216 611.931 349.928C611.355 349.64 610.515 349.328 609.411 348.992C606.507 348.08 604.479 346.988 603.327 345.716C602.175 344.42 601.599 342.812 601.599 340.892C601.599 339.332 602.019 337.976 602.859 336.824C603.699 335.672 604.851 334.784 606.315 334.16C607.803 333.536 609.471 333.224 611.319 333.224ZM636.695 358.064C635.951 358.592 635.039 359 633.959 359.288C632.903 359.576 631.895 359.72 630.935 359.72C628.559 359.696 626.795 359.036 625.643 357.74C624.515 356.42 623.951 354.476 623.951 351.908V344.6H621.647V339.776H623.951V335.744L631.079 334.916V339.776H635.399L634.679 344.6H631.079V351.836C631.079 352.676 631.211 353.276 631.475 353.636C631.739 353.972 632.111 354.14 632.591 354.14C633.191 354.14 633.791 353.972 634.391 353.636L636.695 358.064ZM645.977 339.056C649.049 339.056 651.461 339.956 653.213 341.756C654.989 343.556 655.877 346.112 655.877 349.424C655.877 351.488 655.469 353.3 654.653 354.86C653.861 356.42 652.721 357.62 651.233 358.46C649.745 359.3 647.993 359.72 645.977 359.72C642.905 359.72 640.481 358.82 638.705 357.02C636.953 355.22 636.077 352.664 636.077 349.352C636.077 347.288 636.473 345.476 637.265 343.916C638.081 342.356 639.233 341.156 640.721 340.316C642.209 339.476 643.961 339.056 645.977 339.056ZM645.977 344.168C645.065 344.168 644.405 344.576 643.997 345.392C643.589 346.208 643.385 347.528 643.385 349.352C643.385 351.248 643.589 352.604 643.997 353.42C644.405 354.212 645.065 354.608 645.977 354.608C646.889 354.608 647.549 354.2 647.957 353.384C648.365 352.568 648.569 351.248 648.569 349.424C648.569 347.528 648.365 346.184 647.957 345.392C647.549 344.576 646.889 344.168 645.977 344.168ZM670.564 339.056C672.172 339.056 673.432 339.56 674.344 340.568C675.28 341.576 675.748 342.992 675.748 344.816V359H668.62V346.112C668.62 345.392 668.524 344.9 668.332 344.636C668.164 344.372 667.9 344.24 667.54 344.24C666.748 344.24 665.944 344.876 665.128 346.148V359H658V339.776H664.228L664.732 341.756C665.62 340.82 666.52 340.136 667.432 339.704C668.368 339.272 669.412 339.056 670.564 339.056ZM696.71 349.136C696.71 349.736 696.662 350.492 696.566 351.404H684.902C685.094 352.7 685.49 353.576 686.09 354.032C686.714 354.464 687.602 354.68 688.754 354.68C689.426 354.68 690.11 354.548 690.806 354.284C691.502 353.996 692.27 353.564 693.11 352.988L695.99 356.876C693.662 358.772 691.022 359.72 688.07 359.72C684.662 359.72 682.082 358.784 680.33 356.912C678.578 355.016 677.702 352.52 677.702 349.424C677.702 347.504 678.062 345.764 678.782 344.204C679.526 342.62 680.618 341.372 682.058 340.46C683.498 339.524 685.238 339.056 687.278 339.056C689.174 339.056 690.83 339.452 692.246 340.244C693.662 341.036 694.754 342.188 695.522 343.7C696.314 345.212 696.71 347.024 696.71 349.136ZM689.69 347.12C689.666 345.992 689.486 345.116 689.15 344.492C688.838 343.868 688.262 343.556 687.422 343.556C686.63 343.556 686.03 343.832 685.622 344.384C685.238 344.936 684.986 345.932 684.866 347.372H689.69V347.12Z" fill="#219653"/>
<path d="M706.68 433.464V448.008H713.472L713.208 450H704.4V433.464H706.68ZM720.376 437.064C722.152 437.064 723.528 437.656 724.504 438.84C725.496 440.024 725.992 441.632 725.992 443.664C725.992 444.976 725.768 446.136 725.32 447.144C724.872 448.136 724.224 448.912 723.376 449.472C722.528 450.016 721.52 450.288 720.352 450.288C718.576 450.288 717.192 449.696 716.2 448.512C715.208 447.328 714.712 445.72 714.712 443.688C714.712 442.376 714.936 441.224 715.384 440.232C715.832 439.224 716.48 438.448 717.328 437.904C718.176 437.344 719.192 437.064 720.376 437.064ZM720.376 438.84C718.184 438.84 717.088 440.456 717.088 443.688C717.088 446.904 718.176 448.512 720.352 448.512C722.528 448.512 723.616 446.896 723.616 443.664C723.616 440.448 722.536 438.84 720.376 438.84ZM734.247 437.064C734.999 437.064 735.687 437.176 736.311 437.4C736.935 437.608 737.535 437.952 738.111 438.432L737.055 439.824C736.607 439.504 736.167 439.272 735.735 439.128C735.319 438.968 734.855 438.888 734.343 438.888C733.319 438.888 732.519 439.296 731.943 440.112C731.383 440.928 731.103 442.136 731.103 443.736C731.103 445.336 731.383 446.52 731.943 447.288C732.503 448.04 733.303 448.416 734.343 448.416C734.839 448.416 735.295 448.344 735.711 448.2C736.127 448.04 736.591 447.792 737.103 447.456L738.111 448.896C736.959 449.824 735.671 450.288 734.247 450.288C732.535 450.288 731.183 449.712 730.191 448.56C729.215 447.408 728.727 445.816 728.727 443.784C728.727 442.44 728.951 441.264 729.399 440.256C729.847 439.248 730.479 438.464 731.295 437.904C732.127 437.344 733.111 437.064 734.247 437.064ZM749.386 447.048C749.386 447.56 749.474 447.944 749.65 448.2C749.826 448.44 750.09 448.624 750.442 448.752L749.938 450.288C749.282 450.208 748.754 450.024 748.354 449.736C747.954 449.448 747.658 449 747.466 448.392C746.618 449.656 745.362 450.288 743.698 450.288C742.45 450.288 741.466 449.936 740.746 449.232C740.026 448.528 739.666 447.608 739.666 446.472C739.666 445.128 740.146 444.096 741.106 443.376C742.082 442.656 743.458 442.296 745.234 442.296H747.178V441.36C747.178 440.464 746.962 439.824 746.53 439.44C746.098 439.056 745.434 438.864 744.538 438.864C743.61 438.864 742.474 439.088 741.13 439.536L740.578 437.928C742.146 437.352 743.602 437.064 744.946 437.064C746.434 437.064 747.546 437.432 748.282 438.168C749.018 438.888 749.386 439.92 749.386 441.264V447.048ZM744.202 448.632C745.466 448.632 746.458 447.976 747.178 446.664V443.76H745.522C743.186 443.76 742.018 444.624 742.018 446.352C742.018 447.104 742.202 447.672 742.57 448.056C742.938 448.44 743.482 448.632 744.202 448.632ZM760.305 449.424C759.473 450 758.529 450.288 757.473 450.288C756.401 450.288 755.561 449.984 754.953 449.376C754.361 448.752 754.065 447.856 754.065 446.688V439.056H751.857V437.352H754.065V434.496L756.273 434.232V437.352H759.273L759.033 439.056H756.273V446.592C756.273 447.248 756.385 447.728 756.609 448.032C756.849 448.32 757.241 448.464 757.785 448.464C758.281 448.464 758.841 448.296 759.465 447.96L760.305 449.424ZM771.793 443.304C771.793 443.672 771.777 444.048 771.745 444.432H763.681C763.777 445.824 764.129 446.848 764.737 447.504C765.345 448.16 766.129 448.488 767.089 448.488C767.697 448.488 768.257 448.4 768.769 448.224C769.281 448.048 769.817 447.768 770.377 447.384L771.337 448.704C769.993 449.76 768.521 450.288 766.921 450.288C765.161 450.288 763.785 449.712 762.793 448.56C761.817 447.408 761.329 445.824 761.329 443.808C761.329 442.496 761.537 441.336 761.953 440.328C762.385 439.304 762.993 438.504 763.777 437.928C764.577 437.352 765.513 437.064 766.585 437.064C768.265 437.064 769.553 437.616 770.449 438.72C771.345 439.824 771.793 441.352 771.793 443.304ZM769.609 442.656C769.609 441.408 769.361 440.456 768.865 439.8C768.369 439.144 767.625 438.816 766.633 438.816C764.825 438.816 763.841 440.144 763.681 442.8H769.609V442.656ZM785.111 432.264V450H783.167L782.951 448.248C782.535 448.888 782.015 449.392 781.391 449.76C780.767 450.112 780.071 450.288 779.303 450.288C777.799 450.288 776.623 449.696 775.775 448.512C774.943 447.328 774.527 445.736 774.527 443.736C774.527 442.44 774.727 441.288 775.127 440.28C775.527 439.272 776.103 438.488 776.855 437.928C777.607 437.352 778.487 437.064 779.495 437.064C780.791 437.064 781.927 437.584 782.903 438.624V432L785.111 432.264ZM779.783 448.536C780.455 448.536 781.031 448.384 781.511 448.08C781.991 447.76 782.455 447.288 782.903 446.664V440.472C782.487 439.928 782.039 439.52 781.559 439.248C781.095 438.96 780.567 438.816 779.975 438.816C778.999 438.816 778.239 439.224 777.695 440.04C777.167 440.856 776.903 442.072 776.903 443.688C776.903 445.32 777.151 446.536 777.647 447.336C778.143 448.136 778.855 448.536 779.783 448.536ZM798.222 437.352V450H796.014V437.352H798.222ZM797.094 431.28C797.558 431.28 797.934 431.424 798.222 431.712C798.51 432 798.654 432.36 798.654 432.792C798.654 433.224 798.51 433.584 798.222 433.872C797.934 434.144 797.558 434.28 797.094 434.28C796.646 434.28 796.278 434.144 795.99 433.872C795.702 433.584 795.558 433.224 795.558 432.792C795.558 432.36 795.702 432 795.99 431.712C796.278 431.424 796.646 431.28 797.094 431.28ZM808.74 437.064C809.892 437.064 810.788 437.408 811.428 438.096C812.084 438.784 812.412 439.728 812.412 440.928V450H810.204V441.24C810.204 440.344 810.036 439.712 809.7 439.344C809.364 438.976 808.868 438.792 808.212 438.792C807.54 438.792 806.948 438.984 806.436 439.368C805.924 439.752 805.444 440.304 804.996 441.024V450H802.788V437.352H804.684L804.876 439.224C805.324 438.552 805.876 438.024 806.532 437.64C807.204 437.256 807.94 437.064 808.74 437.064ZM828.17 442.992H825.602V450H823.322V433.464H827.666C829.73 433.464 831.29 433.856 832.346 434.64C833.418 435.424 833.954 436.592 833.954 438.144C833.954 439.296 833.658 440.232 833.066 440.952C832.474 441.672 831.578 442.216 830.378 442.584L834.842 450H832.13L828.17 442.992ZM827.906 441.24C829.106 441.24 830.01 441 830.618 440.52C831.226 440.024 831.53 439.232 831.53 438.144C831.53 437.12 831.218 436.384 830.594 435.936C829.986 435.472 829.002 435.24 827.642 435.24H825.602V441.24H827.906ZM839.941 437.352V450H837.733V437.352H839.941ZM838.813 431.28C839.277 431.28 839.653 431.424 839.941 431.712C840.229 432 840.373 432.36 840.373 432.792C840.373 433.224 840.229 433.584 839.941 433.872C839.653 434.144 839.277 434.28 838.813 434.28C838.365 434.28 837.997 434.144 837.709 433.872C837.421 433.584 837.277 433.224 837.277 432.792C837.277 432.36 837.421 432 837.709 431.712C837.997 431.424 838.365 431.28 838.813 431.28ZM849.259 437.064C851.035 437.064 852.411 437.656 853.387 438.84C854.379 440.024 854.875 441.632 854.875 443.664C854.875 444.976 854.651 446.136 854.203 447.144C853.755 448.136 853.107 448.912 852.259 449.472C851.411 450.016 850.403 450.288 849.235 450.288C847.459 450.288 846.075 449.696 845.083 448.512C844.091 447.328 843.595 445.72 843.595 443.688C843.595 442.376 843.819 441.224 844.267 440.232C844.715 439.224 845.363 438.448 846.211 437.904C847.059 437.344 848.075 437.064 849.259 437.064ZM849.259 438.84C847.067 438.84 845.971 440.456 845.971 443.688C845.971 446.904 847.059 448.512 849.235 448.512C851.411 448.512 852.499 446.896 852.499 443.664C852.499 440.448 851.419 438.84 849.259 438.84ZM874.666 432.264V450H872.722L872.506 448.248C872.09 448.888 871.57 449.392 870.946 449.76C870.322 450.112 869.626 450.288 868.858 450.288C867.354 450.288 866.178 449.696 865.33 448.512C864.498 447.328 864.082 445.736 864.082 443.736C864.082 442.44 864.282 441.288 864.682 440.28C865.082 439.272 865.658 438.488 866.41 437.928C867.162 437.352 868.042 437.064 869.05 437.064C870.346 437.064 871.482 437.584 872.458 438.624V432L874.666 432.264ZM869.338 448.536C870.01 448.536 870.586 448.384 871.066 448.08C871.546 447.76 872.01 447.288 872.458 446.664V440.472C872.042 439.928 871.594 439.52 871.114 439.248C870.65 438.96 870.122 438.816 869.53 438.816C868.554 438.816 867.794 439.224 867.25 440.04C866.722 440.856 866.458 442.072 866.458 443.688C866.458 445.32 866.706 446.536 867.202 447.336C867.698 448.136 868.41 448.536 869.338 448.536ZM888.77 443.304C888.77 443.672 888.754 444.048 888.722 444.432H880.658C880.754 445.824 881.106 446.848 881.714 447.504C882.322 448.16 883.106 448.488 884.066 448.488C884.674 448.488 885.234 448.4 885.746 448.224C886.258 448.048 886.794 447.768 887.354 447.384L888.314 448.704C886.97 449.76 885.498 450.288 883.898 450.288C882.138 450.288 880.762 449.712 879.77 448.56C878.794 447.408 878.306 445.824 878.306 443.808C878.306 442.496 878.514 441.336 878.93 440.328C879.362 439.304 879.97 438.504 880.754 437.928C881.554 437.352 882.49 437.064 883.562 437.064C885.242 437.064 886.53 437.616 887.426 438.72C888.322 439.824 888.77 441.352 888.77 443.304ZM886.586 442.656C886.586 441.408 886.338 440.456 885.842 439.8C885.346 439.144 884.602 438.816 883.61 438.816C881.802 438.816 880.818 440.144 880.658 442.8H886.586V442.656ZM901.407 447.696C901.407 449.328 901.047 450.552 900.327 451.368C899.623 452.184 898.543 452.824 897.087 453.288L896.487 451.632C897.223 451.344 897.775 451.032 898.143 450.696C898.511 450.36 898.767 449.952 898.911 449.472C899.055 448.992 899.127 448.368 899.127 447.6V433.464H901.407V447.696ZM914.48 447.048C914.48 447.56 914.568 447.944 914.744 448.2C914.92 448.44 915.184 448.624 915.536 448.752L915.032 450.288C914.376 450.208 913.848 450.024 913.448 449.736C913.048 449.448 912.752 449 912.56 448.392C911.712 449.656 910.456 450.288 908.792 450.288C907.544 450.288 906.56 449.936 905.84 449.232C905.12 448.528 904.76 447.608 904.76 446.472C904.76 445.128 905.24 444.096 906.2 443.376C907.176 442.656 908.552 442.296 910.328 442.296H912.272V441.36C912.272 440.464 912.056 439.824 911.624 439.44C911.192 439.056 910.528 438.864 909.632 438.864C908.704 438.864 907.568 439.088 906.224 439.536L905.672 437.928C907.24 437.352 908.696 437.064 910.04 437.064C911.528 437.064 912.64 437.432 913.376 438.168C914.112 438.888 914.48 439.92 914.48 441.264V447.048ZM909.296 448.632C910.56 448.632 911.552 447.976 912.272 446.664V443.76H910.616C908.28 443.76 907.112 444.624 907.112 446.352C907.112 447.104 907.296 447.672 907.664 448.056C908.032 448.44 908.576 448.632 909.296 448.632ZM924.966 437.064C926.118 437.064 927.014 437.408 927.654 438.096C928.31 438.784 928.638 439.728 928.638 440.928V450H926.43V441.24C926.43 440.344 926.262 439.712 925.926 439.344C925.59 438.976 925.094 438.792 924.438 438.792C923.766 438.792 923.174 438.984 922.662 439.368C922.15 439.752 921.67 440.304 921.222 441.024V450H919.014V437.352H920.91L921.102 439.224C921.55 438.552 922.102 438.024 922.758 437.64C923.43 437.256 924.166 437.064 924.966 437.064ZM942.629 443.304C942.629 443.672 942.613 444.048 942.581 444.432H934.517C934.613 445.824 934.965 446.848 935.573 447.504C936.181 448.16 936.965 448.488 937.925 448.488C938.533 448.488 939.093 448.4 939.605 448.224C940.117 448.048 940.653 447.768 941.213 447.384L942.173 448.704C940.829 449.76 939.357 450.288 937.757 450.288C935.997 450.288 934.621 449.712 933.629 448.56C932.653 447.408 932.165 445.824 932.165 443.808C932.165 442.496 932.373 441.336 932.789 440.328C933.221 439.304 933.829 438.504 934.613 437.928C935.413 437.352 936.349 437.064 937.421 437.064C939.101 437.064 940.389 437.616 941.285 438.72C942.181 439.824 942.629 441.352 942.629 443.304ZM940.445 442.656C940.445 441.408 940.197 440.456 939.701 439.8C939.205 439.144 938.461 438.816 937.469 438.816C935.661 438.816 934.677 440.144 934.517 442.8H940.445V442.656ZM948.363 437.352V450H946.155V437.352H948.363ZM947.235 431.28C947.699 431.28 948.075 431.424 948.363 431.712C948.651 432 948.795 432.36 948.795 432.792C948.795 433.224 948.651 433.584 948.363 433.872C948.075 434.144 947.699 434.28 947.235 434.28C946.787 434.28 946.419 434.144 946.131 433.872C945.843 433.584 945.699 433.224 945.699 432.792C945.699 432.36 945.843 432 946.131 431.712C946.419 431.424 946.787 431.28 947.235 431.28ZM958.424 437.064C958.872 437.064 959.288 437.112 959.672 437.208L959.264 439.368C958.88 439.272 958.512 439.224 958.16 439.224C957.376 439.224 956.744 439.512 956.264 440.088C955.784 440.664 955.408 441.56 955.136 442.776V450H952.928V437.352H954.824L955.04 439.92C955.376 438.976 955.832 438.264 956.408 437.784C956.984 437.304 957.656 437.064 958.424 437.064ZM966.212 437.064C967.988 437.064 969.364 437.656 970.34 438.84C971.332 440.024 971.828 441.632 971.828 443.664C971.828 444.976 971.604 446.136 971.156 447.144C970.708 448.136 970.06 448.912 969.212 449.472C968.364 450.016 967.356 450.288 966.188 450.288C964.412 450.288 963.028 449.696 962.036 448.512C961.044 447.328 960.548 445.72 960.548 443.688C960.548 442.376 960.772 441.224 961.22 440.232C961.668 439.224 962.316 438.448 963.164 437.904C964.012 437.344 965.028 437.064 966.212 437.064ZM966.212 438.84C964.02 438.84 962.924 440.456 962.924 443.688C962.924 446.904 964.012 448.512 966.188 448.512C968.364 448.512 969.452 446.896 969.452 443.664C969.452 440.448 968.372 438.84 966.212 438.84ZM975.817 446.952C976.297 446.952 976.697 447.112 977.017 447.432C977.337 447.752 977.497 448.144 977.497 448.608C977.497 449.072 977.337 449.472 977.017 449.808C976.697 450.128 976.297 450.288 975.817 450.288C975.353 450.288 974.961 450.128 974.641 449.808C974.321 449.472 974.161 449.072 974.161 448.608C974.161 448.144 974.321 447.752 974.641 447.432C974.961 447.112 975.353 446.952 975.817 446.952Z" fill="#666666"/>
</g>
<defs>
<clipPath id="clip0_17_204">
<rect width="985" height="587" fill="white"/>
</clipPath>
</defs>
</svg>
